<svg width="234" height="39" viewBox="0 0 234 39" fill="none" xmlns="http://www.w3.org/2000/svg">
<path d="M38.16 4.752V38.448H29.952V18.24L22.416 38.448H15.792L8.208 18.192V38.448H2.20537e-06V4.752H9.696L19.152 28.08L28.512 4.752H38.16ZM48.1905 8.88C46.7505 8.88 45.5665 8.464 44.6385 7.632C43.7425 6.768 43.2945 5.712 43.2945 4.464C43.2945 3.184 43.7425 2.128 44.6385 1.296C45.5665 0.431995 46.7505 -4.76837e-06 48.1905 -4.76837e-06C49.5985 -4.76837e-06 50.7505 0.431995 51.6465 1.296C52.5745 2.128 53.0385 3.184 53.0385 4.464C53.0385 5.712 52.5745 6.768 51.6465 7.632C50.7505 8.464 49.5985 8.88 48.1905 8.88ZM52.2705 11.664V38.448H44.0625V11.664H52.2705ZM74.5388 11.376C77.6748 11.376 80.1708 12.4 82.0268 14.448C83.9148 16.464 84.8588 19.248 84.8588 22.8V38.448H76.6988V23.904C76.6988 22.112 76.2348 20.72 75.3068 19.728C74.3788 18.736 73.1308 18.24 71.5628 18.24C69.9948 18.24 68.7468 18.736 67.8188 19.728C66.8908 20.72 66.4268 22.112 66.4268 23.904V38.448H58.2188V11.664H66.4268V15.216C67.2588 14.032 68.3788 13.104 69.7868 12.432C71.1948 11.728 72.7788 11.376 74.5388 11.376ZM88.9305 25.008C88.9305 22.256 89.4425 19.84 90.4665 17.76C91.5225 15.68 92.9465 14.08 94.7385 12.96C96.5305 11.84 98.5305 11.28 100.739 11.28C102.499 11.28 104.099 11.648 105.539 12.384C107.011 13.12 108.163 14.112 108.995 15.36V2.928H117.203V38.448H108.995V34.608C108.227 35.888 107.123 36.912 105.683 37.68C104.275 38.448 102.627 38.832 100.739 38.832C98.5305 38.832 96.5305 38.272 94.7385 37.152C92.9465 36 91.5225 34.384 90.4665 32.304C89.4425 30.192 88.9305 27.76 88.9305 25.008ZM108.995 25.056C108.995 23.008 108.419 21.392 107.267 20.208C106.147 19.024 104.771 18.432 103.139 18.432C101.507 18.432 100.115 19.024 98.9625 20.208C97.8425 21.36 97.2825 22.96 97.2825 25.008C97.2825 27.056 97.8425 28.688 98.9625 29.904C100.115 31.088 101.507 31.68 103.139 31.68C104.771 31.68 106.147 31.088 107.267 29.904C108.419 28.72 108.995 27.104 108.995 25.056ZM131.349 11.328V18.144H142.341V24.48H131.349V31.872H143.781V38.448H123.141V4.752H143.781V11.328H131.349ZM147.477 25.008C147.477 22.256 147.989 19.84 149.013 17.76C150.069 15.68 151.493 14.08 153.285 12.96C155.077 11.84 157.077 11.28 159.285 11.28C161.173 11.28 162.821 11.664 164.229 12.432C165.669 13.2 166.773 14.208 167.541 15.456V11.664H175.749V38.448H167.541V34.656C166.741 35.904 165.621 36.912 164.181 37.68C162.773 38.448 161.125 38.832 159.237 38.832C157.061 38.832 155.077 38.272 153.285 37.152C151.493 36 150.069 34.384 149.013 32.304C147.989 30.192 147.477 27.76 147.477 25.008ZM167.541 25.056C167.541 23.008 166.965 21.392 165.813 20.208C164.693 19.024 163.317 18.432 161.685 18.432C160.053 18.432 158.661 19.024 157.509 20.208C156.389 21.36 155.829 22.96 155.829 25.008C155.829 27.056 156.389 28.688 157.509 29.904C158.661 31.088 160.053 31.68 161.685 31.68C163.317 31.68 164.693 31.088 165.813 29.904C166.965 28.72 167.541 27.104 167.541 25.056ZM192.584 38.832C190.248 38.832 188.168 38.432 186.344 37.632C184.52 36.832 183.08 35.744 182.024 34.368C180.968 32.96 180.376 31.392 180.248 29.664H188.36C188.456 30.592 188.888 31.344 189.656 31.92C190.424 32.496 191.368 32.784 192.488 32.784C193.512 32.784 194.296 32.592 194.84 32.208C195.416 31.792 195.704 31.264 195.704 30.624C195.704 29.856 195.304 29.296 194.504 28.944C193.704 28.56 192.408 28.144 190.616 27.696C188.696 27.248 187.096 26.784 185.816 26.304C184.536 25.792 183.432 25.008 182.504 23.952C181.576 22.864 181.112 21.408 181.112 19.584C181.112 18.048 181.528 16.656 182.36 15.408C183.224 14.128 184.472 13.12 186.104 12.384C187.768 11.648 189.736 11.28 192.008 11.28C195.368 11.28 198.008 12.112 199.928 13.776C201.88 15.44 203 17.648 203.288 20.4H195.704C195.576 19.472 195.16 18.736 194.456 18.192C193.784 17.648 192.888 17.376 191.768 17.376C190.808 17.376 190.072 17.568 189.56 17.952C189.048 18.304 188.792 18.8 188.792 19.44C188.792 20.208 189.192 20.784 189.992 21.168C190.824 21.552 192.104 21.936 193.832 22.32C195.816 22.832 197.432 23.344 198.68 23.856C199.928 24.336 201.016 25.136 201.944 26.256C202.904 27.344 203.4 28.816 203.432 30.672C203.432 32.24 202.984 33.648 202.088 34.896C201.224 36.112 199.96 37.072 198.296 37.776C196.664 38.48 194.76 38.832 192.584 38.832ZM233.701 24.624C233.701 25.392 233.653 26.192 233.557 27.024H214.981C215.109 28.688 215.637 29.968 216.565 30.864C217.525 31.728 218.693 32.16 220.069 32.16C222.117 32.16 223.541 31.296 224.341 29.568H233.077C232.629 31.328 231.813 32.912 230.629 34.32C229.477 35.728 228.021 36.832 226.261 37.632C224.501 38.432 222.533 38.832 220.357 38.832C217.733 38.832 215.397 38.272 213.349 37.152C211.301 36.032 209.701 34.432 208.549 32.352C207.397 30.272 206.821 27.84 206.821 25.056C206.821 22.272 207.381 19.84 208.501 17.76C209.653 15.68 211.253 14.08 213.301 12.96C215.349 11.84 217.701 11.28 220.357 11.28C222.949 11.28 225.253 11.824 227.269 12.912C229.285 14 230.853 15.552 231.973 17.568C233.125 19.584 233.701 21.936 233.701 24.624ZM225.301 22.464C225.301 21.056 224.821 19.936 223.861 19.104C222.901 18.272 221.701 17.856 220.261 17.856C218.885 17.856 217.717 18.256 216.757 19.056C215.829 19.856 215.253 20.992 215.029 22.464H225.301Z" fill="white"/>
</svg>
